<?xml version="1.0" standalone="no"?>
<!DOCTYPE svg PUBLIC "-//W3C//DTD SVG 20010904//EN"
 "http://www.w3.org/TR/2001/REC-SVG-20010904/DTD/svg10.dtd">
<svg version="1.0" xmlns="http://www.w3.org/2000/svg"
 width="338.000000pt" height="338.000000pt" viewBox="0 0 338.000000 338.000000"
 preserveAspectRatio="xMidYMid meet">
<metadata>
Created by potrace 1.14, written by Peter Selinger 2001-2017
</metadata>
<g transform="translate(0.000000,338.000000) scale(0.100000,-0.100000)"
fill="#000000" stroke="none">
<path d="M2656 3372 c-3 -5 1 -12 9 -16 9 -3 12 -12 9 -23 -5 -15 -4 -15 4 -3
6 8 8 18 5 24 -3 5 -1 6 5 2 6 -4 9 -13 6 -20 -3 -8 0 -17 7 -22 8 -5 10 -3 4
6 -5 9 -4 11 4 6 6 -4 9 -11 6 -16 -3 -4 2 -11 11 -14 15 -6 15 -3 -1 20 -11
18 -14 29 -6 33 6 4 3 11 -9 19 -14 8 -21 8 -26 1 -4 -8 -9 -7 -14 1 -5 8 -10
8 -14 2z"/>
<path d="M516 3328 c3 -21 0 -27 -9 -22 -6 4 -5 -1 4 -12 18 -21 21 -53 6 -71
-6 -8 -6 -13 0 -13 5 0 10 -7 10 -15 0 -13 -4 -12 -20 2 -19 18 -19 17 -6 -4
8 -13 18 -23 23 -23 6 0 1 -6 -10 -14 -16 -12 -17 -17 -6 -28 11 -11 12 -10 7
5 -4 9 -3 17 3 17 16 0 24 -18 12 -25 -6 -4 -7 -11 -4 -17 5 -8 1 -9 -12 -5
-16 6 -17 5 -4 -6 8 -6 16 -19 18 -27 3 -10 -3 -9 -20 5 -16 14 -19 15 -9 3 7
-9 10 -22 6 -27 -3 -6 0 -8 8 -5 8 3 17 -2 21 -11 3 -9 2 -13 -4 -10 -5 3 -18
1 -27 -5 -16 -11 -16 -11 -1 -6 10 3 20 1 23 -4 4 -6 -2 -10 -12 -11 -13 0
-12 -3 7 -10 23 -10 24 -11 8 -23 -19 -14 -24 -36 -10 -36 5 0 9 -7 9 -15 0
-11 -4 -12 -14 -3 -11 8 -12 7 -7 -6 3 -9 11 -16 18 -16 6 0 3 -5 -6 -11 -24
-14 -11 -41 16 -34 18 5 17 4 -4 -9 -14 -8 -29 -12 -34 -9 -5 4 -6 1 -2 -5 3
-6 16 -9 29 -7 20 4 21 3 5 -9 -18 -13 -24 -36 -10 -36 4 0 8 -10 9 -21 2 -19
1 -20 -10 -5 -11 15 -13 14 -12 -10 1 -15 7 -30 14 -32 8 -3 6 -9 -6 -18 -17
-13 -17 -14 2 -7 18 6 18 5 6 -10 -7 -9 -10 -17 -6 -17 4 0 2 -6 -4 -14 -9
-11 -9 -17 2 -28 12 -11 12 -14 -2 -25 -14 -11 -13 -12 9 -8 23 4 23 3 8 -9
-19 -14 -24 -36 -9 -36 12 0 6 -37 -9 -55 -8 -9 -8 -15 0 -20 7 -4 7 -12 0
-25 -13 -25 5 -36 28 -18 15 12 16 11 3 -4 -7 -10 -19 -18 -27 -18 -7 0 -15
-4 -18 -9 -4 -5 2 -7 13 -4 10 3 22 0 25 -6 4 -6 1 -9 -7 -5 -8 3 -18 0 -23
-7 -4 -7 -3 -10 3 -6 6 4 13 -2 16 -13 3 -12 1 -18 -5 -14 -6 4 -8 1 -6 -7 3
-8 -2 -23 -11 -34 -15 -19 -15 -19 4 -5 11 8 23 20 27 25 5 6 8 6 8 -2 0 -6
-4 -14 -10 -18 -5 -3 -7 -13 -4 -23 5 -13 4 -14 -4 -4 -7 11 -10 9 -15 -8 -3
-13 0 -23 9 -27 12 -4 12 -8 -3 -19 -17 -13 -17 -14 2 -7 18 6 18 5 6 -10 -7
-9 -10 -17 -6 -17 4 0 2 -6 -4 -14 -9 -11 -9 -17 2 -28 12 -11 12 -14 -2 -25
-14 -11 -13 -12 9 -8 23 4 23 3 8 -9 -19 -14 -24 -36 -9 -36 12 0 6 -37 -8
-54 -7 -8 -7 -16 -1 -22 6 -6 4 -20 -5 -38 -13 -24 -13 -27 -1 -17 9 7 17 8
20 3 3 -6 -2 -13 -12 -17 -15 -6 -15 -8 -2 -18 16 -13 24 -51 9 -41 -5 3 -9 1
-9 -4 0 -6 7 -13 16 -16 17 -6 10 -26 -9 -26 -7 0 -6 4 3 10 8 5 10 10 4 10
-6 0 -17 -7 -24 -16 -8 -8 -9 -14 -4 -13 5 1 16 1 24 0 13 -1 13 -2 0 -11 -11
-7 -11 -10 -2 -10 10 0 10 -3 0 -14 -7 -8 -17 -12 -23 -9 -5 2 -1 -4 10 -14
20 -19 31 -43 19 -43 -4 0 -13 8 -21 18 -13 15 -13 15 -4 -5 9 -18 7 -24 -11
-37 -12 -9 -17 -16 -10 -16 6 0 12 -5 12 -11 0 -5 -6 -7 -12 -3 -10 6 -10 4 0
-8 9 -11 9 -18 2 -21 -6 -3 -5 -4 2 -3 7 2 13 15 12 29 0 21 3 24 13 15 10 -8
11 -13 3 -18 -7 -4 -12 -11 -12 -16 -1 -22 -11 -32 -27 -29 -11 2 -17 -4 -18
-17 -2 -19 -1 -19 11 -3 9 13 15 15 20 7 4 -7 2 -12 -3 -12 -6 0 -11 -7 -11
-15 0 -8 6 -15 13 -15 8 0 7 -3 -3 -10 -9 -6 -17 -5 -23 3 -9 12 -5 -3 10 -40
4 -10 2 -14 -4 -10 -5 3 -10 0 -10 -8 0 -8 5 -15 11 -15 6 0 0 -7 -12 -16 -17
-11 -20 -19 -13 -28 6 -7 7 -17 3 -21 -4 -5 -2 -5 4 -2 7 4 9 -2 6 -18 -2 -14
-8 -22 -12 -20 -5 3 -11 1 -15 -4 -3 -6 3 -8 15 -6 11 2 23 -2 26 -8 4 -7 4
-9 -1 -5 -4 4 -20 1 -36 -8 -30 -15 -40 -28 -15 -18 9 4 14 0 12 -10 -3 -19
-16 -34 -16 -18 0 7 -4 12 -9 12 -13 0 -8 -25 8 -44 11 -13 17 -14 28 -5 11
10 12 9 7 -5 -7 -19 -16 -20 -32 -4 -6 6 -15 8 -19 3 -5 -4 -2 -10 5 -12 6 -3
12 -9 12 -14 0 -6 -4 -7 -10 -4 -6 4 -10 -15 -10 -50 0 -42 3 -54 13 -49 8 5
8 2 -2 -9 -15 -18 -2 -24 16 -6 7 7 12 6 17 -6 3 -9 2 -14 -2 -11 -4 2 -14 0
-22 -5 -12 -8 -11 -9 4 -7 13 2 25 -6 34 -22 13 -23 13 -23 9 -2 -3 12 -1 22
4 22 9 0 13 -14 10 -40 -2 -13 -1 -13 8 0 5 8 7 18 5 22 -3 4 2 5 11 2 12 -5
13 -10 6 -17 -18 -18 -12 -31 6 -16 11 10 14 10 9 2 -4 -7 -2 -13 3 -13 6 0
11 -7 11 -15 0 -8 4 -15 10 -15 5 0 7 8 4 18 -5 16 -5 16 6 0 6 -10 17 -15 26
-11 8 3 14 2 13 -3 -3 -18 1 -47 6 -42 3 3 19 -7 36 -23 17 -16 35 -27 41 -26
6 1 13 -5 15 -13 3 -12 2 -12 -5 -2 -7 11 -11 10 -20 -1 -9 -11 -8 -13 7 -12
11 1 26 7 34 14 12 9 17 9 23 0 4 -7 3 -9 -3 -6 -6 4 -19 -6 -28 -21 -18 -27
-18 -27 2 -9 24 21 30 21 30 2 0 -8 -5 -15 -11 -15 -10 -1 22 -24 34 -25 3 0
11 -4 18 -8 7 -5 12 -3 12 7 0 10 -7 13 -20 11 -13 -3 -18 0 -14 7 4 7 3 8 -4
4 -8 -5 -10 -1 -5 9 5 13 7 14 14 3 5 -7 14 -13 21 -13 7 0 14 -10 16 -23 2
-12 8 -20 13 -17 5 4 9 1 9 -4 0 -6 -4 -11 -10 -11 -5 0 -2 -9 7 -19 17 -20
33 -19 33 2 0 8 -3 8 -9 -1 -7 -11 -9 -11 -14 1 -3 9 1 17 12 20 19 5 27 -29
11 -48 -6 -7 -1 -11 15 -11 17 0 22 3 15 10 -5 5 -10 15 -10 20 0 6 5 3 10 -6
6 -9 19 -15 30 -13 13 3 17 -1 13 -11 -3 -8 1 -14 8 -14 11 0 11 -3 -1 -10 -8
-5 -11 -10 -6 -10 5 0 2 -8 -5 -18 -13 -15 -12 -16 3 -4 9 7 18 9 20 5 3 -4 3
-3 2 4 -2 7 1 15 7 18 5 4 8 1 7 -6 -2 -7 3 -13 10 -14 12 0 17 -10 9 -23 -2
-4 -2 0 0 8 3 11 1 12 -8 3 -20 -20 0 -37 21 -18 17 16 18 16 13 -3 -3 -14 2
-21 19 -27 13 -4 25 -7 28 -7 3 0 6 -11 7 -25 1 -30 21 -45 43 -33 15 8 50 -9
50 -25 0 -4 -6 -2 -13 4 -8 6 -18 7 -22 3 -5 -4 -5 -1 0 7 5 10 4 12 -4 7 -6
-4 -9 -12 -5 -17 3 -5 9 -7 14 -4 4 3 18 -11 30 -30 23 -37 38 -48 20 -15 -6
12 -7 20 -1 20 5 0 11 -5 13 -12 2 -6 13 -12 24 -12 17 -2 24 -7 24 -21 0 -3
-9 -1 -20 5 -11 6 -20 8 -20 6 0 -3 9 -10 21 -16 15 -9 24 -8 37 2 12 9 11 5
-3 -11 -17 -21 -18 -23 -3 -18 10 3 20 1 24 -5 4 -6 3 -8 -4 -4 -6 3 -13 2
-16 -3 -7 -10 20 -9 30 2 4 4 12 7 18 7 6 0 4 -5 -4 -10 -12 -8 -12 -10 -1
-10 8 0 11 -7 8 -20 -3 -11 -1 -17 4 -14 5 3 12 -2 15 -10 3 -9 15 -16 25 -16
18 0 23 -10 20 -36 -1 -6 10 -16 25 -22 19 -9 24 -9 18 -1 -5 8 -3 9 6 4 7 -4
16 -2 22 6 8 11 9 10 4 -3 -3 -11 2 -21 12 -27 14 -8 15 -12 3 -23 -8 -7 -11
-8 -8 -2 4 7 -1 18 -11 25 -15 12 -15 12 -5 -1 6 -8 12 -19 12 -25 1 -5 7 -10
14 -10 6 0 12 -5 12 -12 0 -6 3 -15 7 -18 4 -4 5 5 3 21 -2 16 -2 23 1 16 3
-6 11 -9 16 -6 7 4 8 2 4 -5 -4 -6 0 -24 10 -39 10 -15 17 -31 16 -35 -1 -5 2
-6 7 -3 5 4 17 -1 25 -10 9 -8 16 -12 16 -8 0 4 -15 20 -32 35 -18 16 -30 28
-27 29 3 0 16 -9 29 -20 13 -12 29 -19 36 -16 14 5 7 -31 -10 -53 -8 -10 -3
-9 15 2 28 18 39 14 39 -15 0 -10 5 -18 11 -18 5 0 8 4 4 9 -3 5 -1 12 4 16 6
3 8 -3 6 -15 -2 -11 1 -20 6 -20 6 0 7 -5 3 -11 -5 -8 -9 -8 -14 1 -5 9 -9 9
-14 1 -4 -6 -4 -11 1 -12 4 0 16 -2 26 -4 9 -2 17 2 17 8 0 8 3 8 8 2 4 -5 16
-11 27 -13 16 -2 17 -1 6 7 -15 10 -25 41 -13 39 4 -1 15 2 25 7 10 4 21 5 24
1 9 -8 33 14 33 30 0 8 -5 14 -11 14 -6 0 -9 -7 -6 -15 4 -8 3 -16 -1 -19 -4
-3 -8 4 -9 14 -2 26 14 35 33 19 13 -11 15 -10 12 7 -2 16 2 19 32 17 23 -1
30 1 20 7 -8 5 -18 6 -22 4 -4 -3 -8 0 -8 7 0 7 10 9 25 7 14 -3 28 -1 32 5 3
5 1 7 -5 3 -6 -3 -13 -2 -17 4 -3 5 1 10 9 10 9 0 16 5 16 11 0 5 -5 7 -12 3
-7 -4 -8 -3 -4 4 4 6 13 9 21 6 8 -4 12 -11 8 -17 -3 -6 -1 -7 6 -3 9 6 9 11
-1 24 -12 13 -10 14 9 4 16 -9 24 -9 29 0 4 6 3 8 -3 5 -6 -4 -16 -1 -21 6 -9
10 -5 13 17 11 25 -2 29 1 26 22 -2 24 -2 24 18 7 19 -18 20 -17 8 4 -16 31
-14 40 5 17 15 -18 15 -17 10 16 -5 35 -5 35 9 10 14 -25 14 -25 16 -2 2 35 4
40 11 47 4 4 12 -2 19 -13 13 -20 14 -20 36 11 12 17 25 39 29 49 3 10 10 16
15 13 5 -4 9 -1 9 6 0 9 3 9 14 0 11 -9 14 -8 12 6 0 10 5 17 12 15 10 -2 10
2 1 20 -12 23 -12 23 10 4 11 -11 24 -16 28 -13 3 4 1 7 -5 7 -7 0 -12 8 -12
18 0 14 2 15 10 2 8 -12 10 -10 10 8 0 15 -4 21 -12 16 -7 -4 -8 -3 -4 5 6 9
11 9 21 1 10 -8 19 -8 34 2 23 14 39 43 18 33 -6 -4 -5 -1 4 7 9 7 14 18 12
24 -2 6 3 17 12 24 13 11 16 11 13 0 -2 -7 3 -15 11 -18 10 -3 12 0 7 13 -6
16 -4 16 11 4 13 -11 15 -11 9 -1 -6 10 -2 13 15 10 19 -2 23 1 21 16 -2 13 1
16 10 10 11 -6 11 -5 0 8 -11 14 -9 16 16 14 17 -1 29 3 29 10 0 7 -7 10 -16
7 -13 -4 -13 -3 -2 5 8 6 21 7 30 4 14 -5 14 -4 1 13 -8 10 -9 16 -3 11 7 -4
21 -2 32 3 14 8 21 8 25 -2 2 -6 4 -3 3 8 -2 11 -6 26 -11 33 -5 8 -3 12 6 10
7 -2 12 2 11 8 -1 6 12 10 32 9 30 -2 33 0 25 14 -7 15 -4 17 26 14 34 -2 35
-2 17 15 -11 9 -14 14 -8 10 6 -4 17 -2 23 4 8 8 16 8 29 -2 14 -11 16 -11 6
-1 -9 11 -8 17 3 29 8 8 13 21 10 28 -3 9 0 11 11 7 12 -5 14 -3 8 8 -8 12 -6
12 8 0 15 -12 17 -12 12 1 -5 14 12 25 48 32 9 1 11 16 1 24 -4 4 -4 0 1 -8 5
-8 5 -12 0 -8 -4 4 -13 3 -20 -2 -8 -7 -12 -5 -12 5 0 7 5 13 11 12 6 -1 10 3
9 9 -1 6 4 11 12 11 8 0 12 -4 10 -8 -6 -8 25 -22 33 -14 3 3 -1 5 -8 5 -7 0
-10 3 -7 7 4 3 1 13 -5 22 -7 9 -2 7 11 -4 l24 -20 -11 21 c-9 18 -8 20 11 20
12 -1 21 4 20 11 -2 6 8 21 22 31 13 11 21 23 17 27 -4 5 -1 5 7 0 12 -7 11
-10 -3 -21 -16 -11 -14 -12 13 -10 17 1 34 6 38 11 4 4 3 5 -4 1 -7 -4 -17 2
-23 14 -10 20 -10 21 8 11 18 -10 20 -8 18 20 -1 16 2 32 6 35 5 3 8 2 7 -3
-4 -20 2 -24 18 -12 10 8 14 9 10 2 -4 -6 -3 -14 2 -17 6 -4 9 33 8 93 -1 92
-2 98 -19 88 -15 -10 -15 -13 -3 -20 17 -9 11 -27 -8 -27 -7 0 -6 4 3 10 10 7
11 10 3 11 -39 4 -57 17 -44 32 5 7 9 16 9 22 0 5 6 11 14 13 11 3 11 2 0 -6
-10 -7 -10 -11 1 -21 11 -9 17 -7 28 6 13 16 12 17 -3 4 -20 -15 -24 -2 -5 18
10 10 9 12 -2 9 -7 -2 -15 6 -17 17 -1 11 -13 28 -26 39 l-23 19 22 -7 c19 -6
22 -4 16 9 -3 10 0 21 8 27 10 7 8 8 -8 3 -13 -3 -23 -3 -24 2 0 4 -2 16 -4
26 -2 9 1 15 6 11 5 -3 7 -10 4 -15 -4 -5 -1 -9 5 -9 7 0 9 8 5 21 -5 16 -4
19 5 14 9 -5 11 -4 6 4 -4 6 -13 8 -19 4 -7 -4 -5 2 3 12 14 17 13 18 -2 12
-10 -3 -26 2 -40 14 l-23 20 29 -18 c23 -14 28 -14 24 -3 -3 8 2 21 11 28 14
11 13 12 -6 3 -27 -13 -36 -14 -28 -2 3 5 0 11 -7 14 -7 2 -2 2 10 0 17 -3 22
0 15 9 -4 7 -8 16 -8 20 0 3 -4 10 -9 15 -5 4 -6 3 -2 -4 3 -6 2 -14 -3 -17
-5 -4 -8 5 -7 19 2 13 0 22 -5 20 -4 -3 -10 -1 -13 4 -4 5 -2 12 4 16 6 4 8
11 5 16 -3 5 2 6 12 3 15 -6 15 -4 -2 9 -11 8 -24 13 -29 10 -5 -4 -6 -1 -2 6
5 7 14 10 22 7 7 -3 16 -1 19 5 4 5 1 8 -6 7 -8 -2 -14 7 -14 24 0 14 -4 30
-8 34 -4 5 -5 1 -2 -8 4 -9 3 -18 -2 -21 -4 -3 -8 8 -8 23 -1 16 3 26 8 23 5
-3 6 4 3 15 -4 11 -2 23 4 27 8 5 8 11 -1 21 -9 11 -8 14 2 14 9 1 8 4 -4 11
-9 6 -15 15 -11 20 3 6 -2 16 -11 23 -15 10 -15 15 -4 27 8 8 14 29 15 46 0
26 -2 30 -13 22 -7 -6 -10 -15 -7 -20 3 -5 1 -9 -4 -9 -6 0 -13 7 -16 16 -3 8
-2 13 3 10 5 -3 12 1 15 10 3 8 2 12 -3 9 -17 -10 -21 12 -6 25 8 7 15 17 15
22 0 6 -6 6 -14 -1 -11 -9 -16 -9 -22 0 -4 7 -3 9 4 5 7 -4 10 1 9 14 -1 11
-6 20 -12 20 -5 0 -3 5 5 10 8 5 15 17 15 27 0 10 3 23 7 29 4 6 1 11 -6 11
-8 0 -12 -11 -11 -28 1 -16 -1 -26 -5 -24 -5 3 -7 13 -5 23 1 9 -1 24 -6 34
-7 13 -5 15 10 11 10 -3 22 1 27 8 5 9 2 11 -9 6 -10 -3 -17 -2 -17 4 0 6 -5
7 -12 3 -7 -4 -8 -3 -4 5 4 6 12 9 17 6 5 -4 9 -2 9 3 0 16 -13 22 -27 11 -9
-9 -13 -8 -13 0 0 6 5 12 10 12 6 1 14 2 19 3 5 0 13 5 18 10 5 5 3 6 -4 2 -7
-4 -13 -2 -13 4 0 6 -4 8 -10 5 -5 -3 -10 -1 -10 6 0 6 8 9 19 6 14 -3 18 -1
14 10 -3 8 -13 12 -22 9 -13 -5 -12 -3 2 8 10 8 14 16 8 17 -10 4 -14 22 -12
52 1 11 6 15 13 11 7 -5 8 -3 4 5 -5 7 -15 10 -25 7 -13 -5 -13 -4 2 8 17 13
17 14 0 20 -16 7 -16 9 5 25 23 17 23 18 5 32 -16 13 -17 13 -4 -3 9 -12 10
-18 2 -18 -10 0 -13 8 -10 26 0 3 -7 17 -17 32 -12 18 -13 23 -3 15 8 -7 20
-8 28 -4 9 6 7 10 -8 14 -15 4 -19 10 -14 23 4 10 2 15 -4 11 -5 -3 -10 0 -10
8 0 8 4 12 9 9 4 -3 9 4 9 15 1 12 2 27 3 34 1 6 0 17 -3 22 -12 22 -9 36 6
31 13 -5 14 -4 3 9 -7 8 -9 15 -5 15 5 0 0 9 -9 19 -13 14 -14 20 -5 23 9 3 7
7 -5 11 -9 4 -15 3 -11 -2 3 -5 1 -12 -4 -16 -13 -8 -3 45 14 71 11 17 11 21
0 21 -8 0 -12 -4 -10 -8 3 -3 -3 -13 -13 -20 -15 -13 -16 -12 -3 4 7 9 10 17
6 17 -4 0 -1 8 6 17 12 15 12 16 -2 11 -13 -5 -16 -2 -12 13 3 11 0 19 -8 19
-7 0 -10 2 -7 5 9 10 38 -7 31 -18 -3 -6 -1 -7 6 -3 6 4 9 11 6 16 -3 4 -2 10
2 13 5 2 3 3 -4 1 -6 -1 -19 7 -30 19 -14 17 -14 19 -1 9 14 -12 16 -10 11 9
-5 17 -3 20 7 14 9 -6 8 -1 -2 14 -17 24 -15 71 4 82 7 4 6 9 -2 14 -9 6 -9
10 1 17 11 8 11 9 -1 5 -8 -2 -14 -11 -12 -19 1 -8 -4 -15 -11 -15 -7 0 -13 8
-13 18 0 10 5 15 10 12 5 -4 7 1 3 10 -3 9 -1 19 5 23 7 4 8 3 4 -4 -5 -8 -1
-10 10 -5 15 5 15 7 0 15 -12 7 -14 14 -6 28 8 15 6 23 -12 40 -12 11 -18 20
-14 20 5 0 3 6 -3 14 -9 11 -9 16 0 22 7 4 9 3 5 -4 -9 -16 14 -26 27 -13 9 9
7 10 -8 5 -11 -4 -17 -3 -12 1 10 12 -22 45 -39 38 -13 -5 -19 8 -14 32 1 5
-7 2 -18 -8 -10 -9 -22 -14 -25 -10 -4 3 -7 2 -7 -4 0 -6 7 -14 16 -17 10 -4
13 -2 8 7 -5 9 -4 9 7 0 10 -10 10 -16 1 -25 -9 -9 -12 -9 -12 2 0 7 -3 10 -7
7 -3 -4 -13 -1 -22 5 -9 7 -7 2 4 -11 11 -14 14 -21 8 -17 -7 4 -13 2 -13 -4
0 -6 -4 -9 -9 -6 -5 3 -12 -1 -15 -10 -3 -8 -11 -12 -16 -9 -6 4 -10 3 -9 -2
1 -4 1 -23 0 -41 -1 -30 -2 -32 -17 -18 -8 9 -18 16 -21 16 -6 0 17 -32 32
-42 6 -4 2 -8 -7 -8 -10 0 -18 -5 -18 -11 0 -6 -9 -9 -19 -6 -16 4 -18 0 -15
-19 4 -19 0 -24 -18 -25 -13 0 -17 -3 -10 -6 6 -2 12 -12 12 -21 0 -15 -2 -15
-11 -2 -8 12 -9 10 -7 -10 4 -41 -10 -55 -35 -33 -18 15 -19 15 -9 1 14 -17 5
-48 -14 -51 -5 -1 -10 -6 -10 -12 -1 -5 -3 -14 -4 -20 -1 -5 -2 -14 -1 -18 1
-5 -3 -6 -8 -2 -6 3 -8 12 -4 20 3 8 0 15 -7 15 -6 0 -9 -4 -5 -9 3 -5 1 -12
-4 -16 -6 -3 -8 -12 -5 -20 4 -8 11 -12 17 -8 6 3 7 1 3 -5 -3 -6 -15 -9 -26
-7 -11 2 -23 -1 -26 -7 -4 -6 -3 -8 2 -5 6 3 16 2 24 -4 12 -7 11 -9 -5 -10
-11 -1 -24 -1 -30 0 -5 1 0 -7 13 -18 13 -12 18 -22 12 -26 -5 -3 -10 -1 -10
5 0 6 -5 8 -10 5 -6 -4 -7 -11 -4 -17 4 -7 2 -8 -5 -4 -9 6 -9 11 0 22 7 9 8
14 1 14 -15 0 -21 -23 -10 -43 8 -16 7 -17 -12 -7 -11 6 -17 16 -14 22 4 7 3
8 -5 4 -6 -4 -8 -13 -4 -19 4 -7 8 -25 9 -41 2 -24 0 -26 -8 -13 -5 9 -14 17
-21 17 -8 0 -9 -3 -1 -8 18 -12 23 -39 8 -39 -9 0 -13 6 -10 14 3 8 1 11 -5 8
-5 -4 -7 -15 -4 -25 3 -10 1 -21 -4 -24 -5 -4 -8 -15 -6 -26 2 -12 0 -18 -4
-15 -12 7 -34 -22 -26 -34 4 -7 -1 -8 -11 -4 -10 4 -15 2 -11 -3 3 -6 1 -16
-5 -24 -8 -12 -9 -12 -4 3 5 15 2 16 -14 7 -11 -6 -17 -16 -14 -25 5 -11 1
-14 -12 -9 -15 5 -16 4 -4 -4 9 -7 19 -7 25 -2 8 6 12 5 12 -4 0 -9 -10 -13
-28 -12 -24 2 -26 0 -16 -12 10 -13 8 -14 -13 -8 -24 7 -24 6 -6 -8 19 -16 19
-16 -3 -16 -15 0 -20 -4 -15 -12 4 -7 4 -10 -1 -6 -4 4 -14 0 -22 -10 -8 -11
-12 -12 -11 -3 2 7 -3 16 -10 18 -8 3 -10 -2 -6 -14 5 -15 4 -15 -5 -3 -13 19
-33 19 -49 0 -12 -13 -13 -13 -8 3 3 11 0 17 -10 17 -8 0 -13 -4 -10 -9 4 -5
-2 -8 -11 -6 -10 2 -22 4 -26 4 -5 1 -6 5 -3 9 4 7 -50 8 -64 2 -3 -1 -9 -2
-14 -1 -5 1 -13 -4 -17 -11 -7 -10 -9 -8 -9 5 0 10 -4 16 -10 12 -5 -3 -6 -13
-3 -23 4 -10 -2 -7 -15 8 -17 21 -23 23 -34 12 -11 -11 -10 -12 5 -7 12 5 17
2 17 -11 0 -11 -4 -15 -8 -9 -13 18 -53 17 -75 -2 -12 -10 -19 -14 -15 -9 4 5
3 15 -2 21 -8 9 -5 12 11 11 12 0 24 6 26 14 3 9 1 11 -4 4 -4 -5 -25 -10 -45
-9 -20 1 -35 -2 -32 -7 3 -4 0 -8 -6 -8 -6 0 -8 -5 -4 -12 4 -7 3 -8 -4 -4 -6
4 -9 12 -6 20 3 7 -1 13 -9 13 -9 0 -12 -7 -9 -19 5 -20 -13 -25 -24 -6 -5 7
-3 8 6 3 9 -5 11 -4 6 4 -4 6 -12 8 -18 5 -14 -9 -97 -11 -92 -3 7 12 -29 20
-40 9 -8 -8 -6 -9 7 -5 12 5 17 2 17 -11 0 -11 -4 -15 -8 -9 -13 18 -53 17
-74 -1 -13 -12 -18 -14 -16 -5 2 7 -4 15 -12 16 -8 2 -24 7 -34 11 -12 5 -17
4 -13 -3 3 -5 0 -10 -7 -10 -9 0 -12 7 -8 16 5 13 3 14 -10 4 -8 -7 -19 -9
-23 -5 -5 4 -5 -2 -1 -13 5 -15 4 -17 -5 -8 -12 12 -3 37 11 28 4 -3 5 5 2 17
-5 19 -7 20 -10 6 -4 -22 -51 -21 -47 1 2 18 25 28 25 11 0 -6 -5 -8 -12 -4
-7 5 -8 3 -3 -5 5 -9 10 -10 18 -2 20 20 -7 35 -34 20 -22 -11 -23 -11 -10 5
18 22 6 33 -16 15 -16 -13 -17 -12 -5 3 10 13 10 17 0 22 -7 3 -2 3 12 0 19
-4 22 -3 10 5 -8 6 -23 11 -32 11 -10 0 -18 5 -18 11 0 5 -5 7 -12 3 -7 -4 -8
-3 -4 5 6 9 11 9 21 1 9 -8 14 -6 19 5 3 9 2 14 -3 10 -16 -9 -41 6 -41 26 0
10 -5 19 -11 19 -5 0 -7 -5 -3 -12 4 -6 -4 -3 -18 7 l-25 19 21 19 c12 10 15
16 9 12 -7 -3 -13 -1 -13 4 0 6 -7 11 -16 11 -10 0 -14 5 -10 16 3 8 2 12 -4
9 -9 -5 -14 6 -12 26 1 3 -5 6 -13 6 -11 0 -10 -5 2 -24 9 -13 13 -26 10 -29
-3 -3 -8 4 -12 17 -6 17 -9 19 -16 8 -6 -9 -8 -3 -4 17 3 22 -1 38 -13 51 -9
10 -13 14 -9 7 4 -7 3 -15 -3 -19 -6 -4 -9 -1 -8 7 2 8 -4 12 -17 10 -18 -4
-17 -1 5 18 21 18 22 21 6 18 -10 -1 -21 3 -23 10 -3 6 0 12 6 12 6 0 11 5 11
12 0 9 -3 9 -12 0 -17 -17 -28 -15 -28 4 0 8 4 13 9 9 5 -3 12 -1 15 4 3 4 -4
8 -16 7 -12 0 -23 5 -26 13 -3 9 0 11 8 6 9 -5 11 -4 6 4 -6 9 -11 9 -22 0
-18 -15 -20 11 -1 31 10 12 9 12 -5 1 -22 -16 -38 -7 -33 19 4 23 -9 34 -45
39 -5 0 -10 5 -10 11 0 5 8 7 18 4 14 -5 15 -4 2 5 -8 6 -11 11 -6 11 5 0 3 6
-3 13 -6 8 -7 18 -3 23 4 4 -1 2 -10 -5 -12 -9 -18 -10 -18 -2 0 6 -5 11 -11
11 -5 0 -8 -4 -5 -8 3 -5 -1 -9 -8 -9 -7 0 -13 6 -13 13 0 7 4 11 8 8 4 -2 10
0 14 6 3 5 1 11 -4 11 -6 1 -15 2 -21 3 -17 2 -13 20 7 28 11 5 5 7 -17 3 -25
-3 -31 -2 -20 5 13 8 12 12 -4 27 -19 17 -19 17 -5 -2 13 -19 13 -19 -5 -5
-11 8 -21 14 -23 12 -3 -2 -8 0 -11 4 -4 4 -1 4 6 0 7 -4 12 -1 12 9 0 10 5
13 12 9 7 -4 8 -3 4 4 -4 6 -14 8 -24 5 -15 -5 -14 -3 3 18 17 20 17 21 2 9
-16 -12 -20 -12 -28 1 -5 8 -9 18 -9 22 0 5 -4 5 -10 2 -5 -3 -10 1 -10 10 0
10 4 13 12 9 7 -5 2 5 -10 21 -15 18 -33 29 -51 30 -25 1 -28 -2 -25 -27z m67
-18 c-3 -3 -8 1 -10 8 -3 6 -9 10 -14 6 -10 -6 -12 9 -2 19 3 4 12 -1 19 -11
7 -9 10 -19 7 -22z m-29 -8 c3 -5 -1 -9 -9 -9 -8 0 -15 4 -15 9 0 4 4 8 9 8 6
0 12 -4 15 -8z m2053 -63 c-10 -6 -14 -15 -10 -22 4 -7 0 -6 -10 2 -13 11 -17
11 -17 1 0 -8 -3 -10 -6 -7 -11 11 13 33 38 34 20 2 21 1 5 -8z m117 -27 c2
-4 -5 -9 -17 -9 -17 -2 -19 0 -7 7 18 12 18 12 24 2z m-12 -29 c-6 -2 -10 -9
-7 -13 3 -5 1 -11 -4 -14 -7 -5 -8 11 -2 32 1 1 7 2 14 1 9 0 9 -2 -1 -6z
m-1937 -103 c3 -5 1 -10 -4 -10 -6 0 -11 5 -11 10 0 6 2 10 4 10 3 0 8 -4 11
-10z m41 -62 c5 -7 3 -8 -6 -3 -9 5 -11 1 -6 -16 3 -13 3 -18 0 -11 -3 6 -10
9 -16 6 -6 -4 -5 2 1 15 13 24 17 25 27 9z m1589 -58 c3 -5 1 -10 -4 -10 -6 0
-11 5 -11 10 0 6 2 10 4 10 3 0 8 -4 11 -10z m5 -24 c0 -3 -4 -8 -10 -11 -5
-3 -10 -1 -10 4 0 6 5 11 10 11 6 0 10 -2 10 -4z m-1535 -16 c3 -5 2 -10 -4
-10 -5 0 -13 5 -16 10 -3 6 -2 10 4 10 5 0 13 -4 16 -10z m1886 -171 c-2 -8
-4 -19 -4 -26 0 -7 -7 -15 -14 -17 -8 -3 -11 -1 -8 5 4 5 1 18 -7 27 -12 16
-11 16 6 2 18 -14 19 -13 14 8 -4 15 -3 22 5 19 7 -3 10 -11 8 -18z m-1717
-37 c2 -4 -5 -9 -17 -9 -17 -2 -19 0 -7 7 18 12 18 12 24 2z m1716 -32 c-20
-13 -33 -13 -25 0 3 6 14 10 23 10 15 0 15 -2 2 -10z m-2217 -25 c-3 -9 -8
-14 -10 -11 -3 3 -2 9 2 15 9 16 15 13 8 -4z m-2 -42 c13 -17 13 -17 -6 -3
-11 8 -22 16 -24 17 -2 2 0 3 6 3 6 0 17 -8 24 -17z m-4 -142 c0 -11 -7 -17
-14 -14 -9 4 -9 8 0 19 16 17 16 17 14 -5z m1085 -13 c-7 -7 -12 -8 -12 -2 0
6 3 14 7 17 3 4 9 5 12 2 2 -3 -1 -11 -7 -17z m255 7 c4 -4 2 -5 -4 -1 -8 4
-13 2 -13 -6 0 -9 -3 -9 -10 2 -8 12 -10 12 -10 1 0 -8 -3 -12 -6 -8 -3 3 -3
10 0 15 7 12 32 10 43 -3z m-1337 -29 c0 -2 -8 -10 -17 -17 -16 -13 -17 -12
-4 4 13 16 21 21 21 13z m3 -261 c-3 -9 -8 -14 -10 -11 -3 3 -2 9 2 15 9 16
15 13 8 -4z m-2 -42 c13 -17 13 -17 -6 -3 -11 8 -22 16 -24 17 -2 2 0 3 6 3 6
0 17 -8 24 -17z m-4 -142 c0 -11 -7 -17 -14 -14 -9 4 -9 8 0 19 16 17 16 17
14 -5z m2277 -27 c3 -8 2 -12 -4 -9 -6 3 -10 10 -10 16 0 14 7 11 14 -7z
m-2277 -19 c0 -8 -4 -12 -9 -9 -5 3 -6 10 -3 15 9 13 12 11 12 -6z m2307 -75
c-6 -5 -24 21 -24 34 0 6 6 1 14 -10 8 -10 12 -21 10 -24z m10 -19 c3 -4 -3
-16 -13 -25 -13 -12 -21 -14 -26 -6 -3 6 -1 9 6 8 7 -2 14 3 15 10 3 25 8 29
18 13z m-2314 -109 c0 -5 -7 -9 -15 -9 -8 0 -12 4 -9 9 3 4 9 8 15 8 5 0 9 -4
9 -8z m-10 -66 c0 -2 -7 -7 -16 -10 -8 -3 -12 -2 -9 4 6 10 25 14 25 6z m-19
-99 c-10 -9 -11 -8 -5 6 3 10 9 15 12 12 3 -3 0 -11 -7 -18z m-6 -27 c-3 -5
-12 -10 -18 -10 -7 0 -6 4 3 10 19 12 23 12 15 0z m-5 -46 c0 -8 -19 -13 -24
-6 -3 5 1 9 9 9 8 0 15 -2 15 -3z m-35 -84 c-3 -5 -1 -10 6 -10 7 0 10 -2 7
-5 -8 -9 -38 6 -32 16 3 5 10 9 15 9 6 0 7 -4 4 -10z m2467 -75 c0 -5 -5 -10
-12 -11 -7 -2 -6 -1 1 3 8 4 7 8 -2 15 -11 8 -11 9 -1 6 8 -2 14 -8 14 -13z
m-2468 -64 c3 -5 -1 -14 -9 -21 -8 -7 -15 -9 -15 -4 0 5 -5 2 -10 -6 -8 -12
-11 -13 -22 -2 -7 8 -8 13 -3 12 6 -2 13 -1 18 0 4 1 12 4 17 5 6 1 13 3 18 4
4 2 -2 6 -13 11 -16 7 -17 9 -3 9 9 1 19 -3 22 -8z m181 -379 c-3 -3 -11 0
-18 7 -9 10 -8 11 6 5 10 -3 15 -9 12 -12z m2025 -36 c0 -2 -6 -9 -14 -15 -11
-9 -16 -9 -22 0 -4 8 -3 9 4 5 7 -4 12 -2 12 3 0 6 5 11 10 11 6 0 10 -2 10
-4z m-180 -146 c0 -5 -2 -10 -4 -10 -3 0 -8 5 -11 10 -3 6 -1 10 4 10 6 0 11
-4 11 -10z m-123 -76 c-3 -4 -2 -16 4 -28 10 -20 9 -20 -5 -2 -14 17 -13 36 1
36 4 0 3 -3 0 -6z m-1295 -102 c-3 -10 -1 -13 6 -8 7 4 12 5 12 2 0 -15 -20
-14 -29 2 -7 14 -6 19 4 19 7 0 11 -7 7 -15z m1178 -21 c0 -6 -4 -13 -10 -16
-5 -3 -10 1 -10 9 0 9 5 16 10 16 6 0 10 -4 10 -9z m-1080 -35 c0 -2 -7 -7
-16 -10 -8 -3 -12 -2 -9 4 6 10 25 14 25 6z m985 -46 c-3 -5 -12 -10 -18 -10
-7 0 -6 4 3 10 19 12 23 12 15 0z m-75 -84 c0 -2 -6 -9 -13 -15 -10 -8 -14 -7
-14 4 0 8 6 15 14 15 7 0 13 -2 13 -4z m-756 -22 c5 -14 4 -15 -9 -4 -17 14
-19 20 -6 20 5 0 12 -7 15 -16z m70 -64 c-21 -8 -37 -3 -29 10 3 4 15 6 27 2
21 -5 21 -6 2 -12z m537 -33 c-8 -8 -14 -7 -23 2 -11 10 -9 11 6 5 15 -6 17
-4 11 6 -6 9 -4 11 4 5 9 -5 10 -10 2 -18z m-264 -186 c0 -11 -5 -18 -9 -15
-4 3 -5 11 -1 19 7 21 12 19 10 -4z"/>
<path d="M510 3269 c0 -5 -6 -7 -12 -3 -8 5 -8 1 2 -12 8 -10 15 -20 16 -22 1
-2 2 9 2 23 0 14 -2 25 -4 25 -2 0 -4 -5 -4 -11z"/>
<path d="M2426 3042 c-2 -4 -1 -14 3 -21 6 -9 11 -10 15 -2 4 6 2 11 -4 11 -6
0 -8 5 -5 10 3 6 4 10 1 10 -3 0 -7 -4 -10 -8z"/>
<path d="M836 2993 c-6 -14 -5 -15 5 -6 7 7 10 15 7 18 -3 3 -9 -2 -12 -12z"/>
<path d="M2750 2819 c0 -5 5 -7 10 -4 6 3 10 8 10 11 0 2 -4 4 -10 4 -5 0 -10
-5 -10 -11z"/>
<path d="M2196 2701 c-4 -5 -2 -12 3 -15 5 -4 12 -2 15 3 4 5 2 12 -3 15 -5 4
-12 2 -15 -3z"/>
<path d="M1055 2680 c3 -5 8 -10 11 -10 2 0 4 5 4 10 0 6 -5 10 -11 10 -5 0
-7 -4 -4 -10z"/>
<path d="M2186 2654 c-3 -8 -9 -13 -14 -10 -4 2 -14 1 -21 -3 -10 -7 -10 -9 2
-14 8 -3 25 5 38 19 12 13 18 24 12 24 -6 0 -14 -7 -17 -16z"/>
<path d="M2783 2644 c4 -4 2 -13 -4 -21 -15 -17 -1 -17 16 1 12 12 12 15 -2
21 -10 3 -14 3 -10 -1z"/>
<path d="M2776 2591 c-4 -5 3 -7 14 -4 23 6 26 13 6 13 -8 0 -17 -4 -20 -9z"/>
<path d="M2780 2540 c0 -5 5 -10 11 -10 5 0 7 5 4 10 -3 6 -8 10 -11 10 -2 0
-4 -4 -4 -10z"/>
<path d="M503 2513 c4 -3 1 -13 -6 -22 -11 -14 -10 -14 5 -2 16 12 16 31 1 31
-4 0 -3 -3 0 -7z"/>
<path d="M1360 2493 c0 -6 -14 -9 -30 -8 -17 1 -28 0 -25 -4 4 -3 10 -6 13 -6
4 0 12 -4 18 -8 13 -8 41 20 30 30 -3 3 -6 2 -6 -4z"/>
<path d="M2788 2463 c7 -3 16 -2 19 1 4 3 -2 6 -13 5 -11 0 -14 -3 -6 -6z"/>
<path d="M2813 2115 c0 -8 4 -12 9 -9 4 3 8 9 8 15 0 5 -4 9 -8 9 -5 0 -9 -7
-9 -15z"/>
<path d="M2817 2053 c-3 -5 6 -9 20 -10 19 -1 22 1 12 8 -17 11 -26 11 -32 2z"/>
<path d="M503 2033 c4 -3 1 -13 -6 -22 -11 -14 -10 -14 5 -2 16 12 16 31 1 31
-4 0 -3 -3 0 -7z"/>
<path d="M2835 1940 c-3 -5 -1 -10 4 -10 6 0 11 5 11 10 0 6 -2 10 -4 10 -3 0
-8 -4 -11 -10z"/>
<path d="M2865 1650 c-3 -6 1 -7 9 -4 18 7 21 14 7 14 -6 0 -13 -4 -16 -10z"/>
<path d="M2910 1599 c0 -5 5 -7 10 -4 6 3 10 8 10 11 0 2 -4 4 -10 4 -5 0 -10
-5 -10 -11z"/>
<path d="M2926 1281 c-4 -5 -2 -12 3 -15 5 -4 12 -2 15 3 4 5 2 12 -3 15 -5 4
-12 2 -15 -3z"/>
<path d="M2854 1019 c-4 -7 -3 -9 4 -5 5 3 13 0 15 -6 4 -9 6 -10 6 -1 1 17
-16 25 -25 12z"/>
<path d="M2840 980 c-9 -6 -10 -10 -3 -10 6 0 15 5 18 10 8 12 4 12 -15 0z"/>
<path d="M2690 855 c0 -8 2 -15 4 -15 2 0 6 7 10 15 3 8 1 15 -4 15 -6 0 -10
-7 -10 -15z"/>
<path d="M2520 745 c-9 -10 -9 -15 -1 -15 6 0 11 5 11 11 0 5 5 7 12 3 7 -4 8
-3 4 4 -9 15 -11 15 -26 -3z"/>
<path d="M890 685 c0 -8 4 -15 10 -15 5 0 7 7 4 15 -4 8 -8 15 -10 15 -2 0 -4
-7 -4 -15z"/>
<path d="M995 570 c-3 -6 1 -7 9 -4 18 7 21 14 7 14 -6 0 -13 -4 -16 -10z"/>
<path d="M2293 555 c0 -14 4 -25 9 -25 5 0 7 4 4 9 -4 5 -1 11 5 13 7 2 6 8
-4 16 -12 10 -14 8 -14 -13z"/>
<path d="M2336 562 c-3 -5 1 -9 9 -9 8 0 12 4 9 9 -3 4 -7 8 -9 8 -2 0 -6 -4
-9 -8z"/>
<path d="M1180 406 c0 -2 8 -10 18 -17 15 -13 16 -12 3 4 -13 16 -21 21 -21
13z"/>
<path d="M2116 378 c3 -5 10 -6 15 -3 13 9 11 12 -6 12 -8 0 -12 -4 -9 -9z"/>
<path d="M2024 326 c1 -8 5 -18 8 -22 4 -3 5 1 4 10 -1 8 -5 18 -8 22 -4 3 -5
-1 -4 -10z"/>
<path d="M1796 107 c3 -10 9 -15 12 -12 3 3 0 11 -7 18 -10 9 -11 8 -5 -6z"/>
<path d="M1585 71 c-3 -5 -2 -12 3 -15 5 -3 9 1 9 9 0 17 -3 19 -12 6z"/>
<path d="M1699 33 c-13 -17 -13 -17 6 -3 11 8 22 16 24 17 2 2 0 3 -6 3 -6 0
-17 -8 -24 -17z"/>
<path d="M1726 18 c3 -5 10 -6 15 -3 13 9 11 12 -6 12 -8 0 -12 -4 -9 -9z"/>
</g>
</svg>
